<?xml version="1.0" standalone="no"?>
<!DOCTYPE svg PUBLIC "-//W3C//DTD SVG 20010904//EN" "http://www.w3.org/TR/2001/REC-SVG-20010904/DTD/svg10.dtd">
<svg version="1.0" xmlns="http://www.w3.org/2000/svg" width="512.000000pt" height="512.000000pt" viewBox="0 0 512.000000 512.000000" preserveAspectRatio="xMidYMid meet">
	<path
		d="M377.171034,369 C393.869885,369 408.690115,366.078486 421.631724,360.235457 C434.573333,354.392428 445.636322,346.253924 454.82069,335.819945 C464.005057,325.385965 470.997701,313.282548 475.798621,299.509695 C480.59954,285.736842 483,270.920591 483,255.060942 C483,239.618652 480.59954,225.01108 475.798621,211.238227 C470.997701,197.465374 464.005057,185.570637 454.82069,175.554017 C445.636322,165.537396 434.573333,157.607572 421.631724,151.764543 C408.690115,145.921514 394.078621,143 377.797241,143 C364.438161,143 352.018391,145.086796 340.537931,149.260388 C329.057471,153.43398 318.411954,159.068329 308.601379,166.163435 C298.790805,173.258541 289.606437,181.292705 281.048276,190.265928 C272.490115,199.239151 264.245057,208.525392 256.313103,218.124654 C247.963678,208.525392 239.509885,199.239151 230.951724,190.265928 C222.393563,181.292705 213.209195,173.362881 203.398621,166.476454 C193.588046,159.590028 182.942529,154.060018 171.462069,149.886427 C159.981609,145.712835 147.353103,143.626039 133.576552,143.626039 C117.295172,143.626039 102.683678,146.547553 89.742069,152.390582 C76.8004598,158.23361 65.8418391,166.163435 56.8662069,176.180055 C47.8905747,186.196676 41.0022989,198.091413 36.2013793,211.864266 C31.4004598,225.637119 29,240.244691 29,255.686981 C29,271.54663 31.5048276,286.362881 36.5144828,300.135734 C41.5241379,313.908587 48.6211494,325.803324 57.8055172,335.819945 C66.9898851,345.836565 78.2616092,353.76639 91.6206897,359.609418 C104.97977,365.452447 119.8,368.373961 136.081379,368.373961 C149.44046,368.373961 161.651494,366.495845 172.714483,362.739612 C183.777471,358.98338 194.005517,353.870729 203.398621,347.401662 C212.791724,340.932595 221.767356,333.524469 230.325517,325.177285 C238.883678,316.830102 247.546207,308.065559 256.313103,298.883657 C264.245057,308.065559 272.594483,316.830102 281.361379,325.177285 C290.128276,333.524469 299.417011,340.932595 309.227586,347.401662 C319.038161,353.870729 329.57931,359.087719 340.851034,363.052632 C352.122759,367.017544 364.229425,369 377.171034,369 Z M378.651163,309 C369.860465,309 361.383721,307.431953 353.22093,304.295858 C345.05814,301.159763 337.313953,297.187377 329.988372,292.378698 C322.662791,287.57002 315.860465,282.134122 309.581395,276.071006 C303.302326,270.00789 297.44186,263.840237 292,257.568047 C297.023256,252.13215 302.77907,246.17357 309.267442,239.692308 C315.755814,233.211045 322.662791,227.252465 329.988372,221.816568 C337.313953,216.380671 344.848837,211.885602 352.593023,208.331361 C360.337209,204.77712 368.395349,203 376.767442,203 C392.674419,203 405.023256,208.226824 413.813953,218.680473 C422.604651,229.134122 427,241.887574 427,256.940828 C427,271.575937 422.813953,283.911243 414.44186,293.946746 C406.069767,303.982249 394.139535,309 378.651163,309 Z M135.232558,308 C119.744186,308 107.5,303.329341 98.5,293.988024 C89.5,284.646707 85,272.295409 85,256.934132 C85,242.818363 89.3953488,230.467066 98.1860465,219.88024 C106.976744,209.293413 118.697674,204 133.348837,204 C141.302326,204 149.360465,205.764471 157.523256,209.293413 C165.686047,212.822355 173.534884,217.285429 181.069767,222.682635 C188.604651,228.07984 195.72093,233.892216 202.418605,240.11976 C209.116279,246.347305 214.976744,252.159681 220,257.556886 C214.976744,263.369261 209.22093,269.285429 202.732558,275.305389 C196.244186,281.325349 189.337209,286.722555 182.011628,291.497006 C174.686047,296.271457 167.046512,300.215569 159.093023,303.329341 C151.139535,306.443114 143.186047,308 135.232558,308 Z"
		fill="#000000"
		fill-rule="nonzero"
	/>
</svg>
