<?xml version="1.0" standalone="no"?>
<!DOCTYPE svg PUBLIC "-//W3C//DTD SVG 20010904//EN" "http://www.w3.org/TR/2001/REC-SVG-20010904/DTD/svg10.dtd">
<svg version="1.0" xmlns="http://www.w3.org/2000/svg" width="512.000000pt" height="512.000000pt" viewBox="0 0 512.000000 512.000000" preserveAspectRatio="xMidYMid meet">
	<g transform="translate(0.000000,512.000000) scale(0.100000,-0.100000)" fill="#000000" stroke="none">
		<path d="M1230 3679 c-299 -25 -556 -169 -725 -404 -89 -124 -169 -313 -191
	-449 -3 -21 -8 -48 -11 -60 -10 -42 -13 -312 -5 -358 7 -34 6 -48 -2 -48 -7 0
	-7 -3 -1 -8 10 -7 18 -39 19 -79 1 -11 4 -20 7 -18 3 2 11 -24 19 -57 7 -33
	21 -78 32 -99 10 -21 18 -43 18 -48 0 -6 9 -25 20 -43 23 -38 25 -52 8 -42 -8
	4 -10 3 -5 -2 5 -5 13 -10 18 -10 5 -1 12 -2 15 -3 4 0 1 -8 -6 -16 -11 -13
	-10 -14 4 -9 9 3 16 1 16 -5 0 -21 3 -26 22 -39 12 -9 17 -21 13 -35 -2 -12
	-2 -16 1 -9 4 9 13 5 29 -14 13 -15 22 -32 19 -36 -3 -5 0 -7 8 -6 7 2 12 -5
	12 -14 -1 -10 2 -16 6 -13 4 3 13 -2 20 -10 12 -14 7 -19 -13 -16 -5 1 -6 -3
	-2 -9 5 -8 11 -8 20 0 10 8 20 4 41 -17 16 -15 28 -32 26 -36 -1 -5 1 -6 6 -3
	5 3 18 -4 30 -14 12 -11 23 -20 26 -20 13 0 104 -69 98 -74 -3 -4 1 -4 11 0
	12 4 17 1 18 -12 0 -11 3 -14 6 -6 2 6 9 12 14 12 6 0 8 -4 5 -8 -2 -4 15 -14
	40 -21 26 -8 41 -17 37 -24 -3 -5 -2 -8 3 -4 14 8 225 -48 217 -58 -5 -5 -1
	-5 7 1 8 6 21 9 28 8 6 -1 30 -2 52 -3 31 -1 38 -4 34 -16 -4 -8 -1 -15 5 -15
	6 0 10 5 9 11 -2 6 3 14 10 16 6 3 12 0 12 -7 0 -7 6 -8 18 -2 9 5 49 8 89 8
	39 -1 70 1 68 4 -2 3 6 6 18 7 42 2 102 11 119 18 10 4 29 8 43 9 14 0 25 5
	25 10 0 4 7 6 15 2 8 -3 15 -2 15 3 0 9 48 26 63 23 4 -1 7 2 7 7 0 8 34 21
	54 20 5 -1 12 4 15 9 3 5 21 17 39 26 28 14 36 15 50 4 15 -12 16 -11 4 4 -11
	14 -10 18 6 27 11 6 23 7 27 3 5 -4 5 -1 1 6 -6 10 5 17 19 10 2 -2 12 7 21
	20 9 14 22 21 31 18 8 -3 12 -2 9 2 -3 5 4 16 15 25 10 9 19 13 19 9 0 -4 5 1
	11 11 8 14 14 16 25 6 12 -9 13 -9 9 3 -4 9 16 33 52 65 32 28 78 70 102 94
	24 24 48 43 53 41 5 -1 6 2 3 8 -4 7 2 14 14 17 11 3 19 8 17 12 -2 3 33 43
	79 89 82 82 83 82 97 60 9 -13 34 -42 57 -65 24 -23 40 -47 36 -53 -4 -6 -3
	-10 2 -9 22 4 35 -2 30 -15 -4 -10 -1 -13 9 -9 17 6 19 -13 2 -21 -7 -3 -3 -3
	10 0 15 4 22 1 22 -10 0 -8 9 -18 21 -21 13 -4 18 -12 15 -21 -3 -8 -2 -13 3
	-10 5 3 21 -5 36 -19 26 -21 27 -26 14 -42 -13 -16 -12 -17 3 -5 15 12 23 9
	59 -20 23 -18 53 -43 66 -55 13 -13 28 -23 33 -23 6 0 10 -4 10 -9 0 -5 13
	-14 30 -21 16 -7 27 -16 24 -21 -3 -5 2 -9 10 -9 9 0 16 -5 16 -10 0 -6 6 -9
	13 -8 6 2 11 -2 10 -7 -1 -6 8 -12 19 -12 12 -1 26 -7 32 -14 8 -9 7 -10 -3
	-4 -9 5 -12 4 -7 -3 4 -6 13 -9 21 -5 8 3 15 1 15 -4 0 -5 6 -10 13 -10 6 0
	41 -14 76 -32 36 -17 70 -31 78 -31 7 0 13 -4 13 -10 0 -5 9 -10 20 -10 11 0
	20 -6 20 -12 0 -9 4 -8 10 2 6 10 10 11 10 2 0 -6 3 -11 8 -10 14 3 82 -14 78
	-21 -2 -3 13 -5 35 -5 21 1 39 -2 39 -6 0 -5 12 -7 28 -6 15 2 33 -1 40 -6 8
	-7 12 -7 12 1 0 7 5 9 10 6 6 -4 56 -6 113 -5 154 3 177 4 177 11 0 6 93 24
	118 22 6 0 12 3 12 7 0 5 11 7 25 6 13 -2 22 1 19 5 -4 8 10 11 32 8 4 0 10 4
	13 9 9 14 82 43 92 36 5 -3 8 0 7 8 -2 7 3 12 10 11 6 -2 12 1 12 6 0 5 16 18
	36 30 19 12 32 15 29 9 -4 -7 2 -2 13 11 12 15 24 21 32 16 8 -5 11 -4 6 3 -8
	13 33 54 47 45 6 -3 7 -1 4 4 -9 14 19 37 34 27 8 -4 9 -3 5 4 -8 13 24 53 36
	46 4 -3 8 2 8 11 0 8 7 18 15 21 8 4 12 10 9 15 -3 5 -2 9 3 9 4 0 24 25 43
	55 24 39 39 54 50 50 11 -5 12 -3 4 5 -8 8 -7 20 5 46 8 18 19 34 24 34 4 0 5
	-6 1 -12 -5 -10 -3 -10 7 0 11 11 11 14 1 21 -11 6 -10 12 5 26 10 10 17 20
	16 22 -9 10 -1 33 9 27 6 -4 8 -3 5 3 -5 8 -1 29 18 93 1 3 4 12 8 20 9 22 27
	109 32 155 3 22 7 58 10 80 6 45 6 172 0 255 -15 200 -87 411 -195 570 -39 58
	-145 171 -201 215 -114 90 -297 172 -449 200 -61 12 -302 14 -375 4 -38 -6
	-117 -26 -175 -45 -250 -83 -456 -232 -710 -515 -47 -52 -87 -96 -90 -99 -3
	-3 -19 -22 -37 -42 l-32 -37 -32 37 c-74 85 -219 240 -279 298 -321 306 -647
	435 -1020 403z m2463 -612 c-3 -7 2 -4 13 5 16 14 23 15 34 5 10 -9 11 -9 6 1
	-5 8 2 12 24 12 22 0 29 -4 24 -12 -6 -10 -4 -10 7 -2 15 11 14 11 82 0 26 -4
	47 -12 47 -17 0 -6 6 -9 13 -6 12 5 77 -18 87 -31 3 -4 14 -12 25 -19 11 -6
	19 -16 17 -23 -1 -6 2 -9 7 -6 13 9 63 -43 55 -56 -4 -6 -2 -8 4 -4 12 7 44
	-33 36 -46 -3 -4 -1 -8 4 -8 4 0 18 -18 31 -40 12 -22 19 -40 15 -40 -3 0 -1
	-7 6 -15 7 -8 9 -15 6 -15 -4 0 -4 -6 1 -12 8 -14 9 -17 18 -63 3 -16 8 -35
	10 -42 2 -7 0 -15 -6 -19 -6 -4 -6 -11 2 -20 11 -14 8 -100 -7 -184 -24 -135
	-115 -261 -237 -329 -92 -51 -281 -63 -412 -27 -118 33 -271 113 -388 203 -83
	64 -237 214 -231 225 3 4 -1 8 -8 9 -7 0 -24 14 -38 32 -20 25 -21 30 -7 24
	11 -4 16 -3 12 4 -9 13 14 41 28 32 5 -3 7 -2 4 4 -9 14 188 207 202 199 6 -4
	11 -4 10 1 -3 17 1 36 7 30 3 -3 17 6 30 20 13 14 24 24 24 21 0 -3 17 10 37
	28 37 34 61 45 47 22 -5 -9 -2 -9 9 1 19 15 23 26 5 15 -7 -5 -8 -3 -4 5 5 7
	18 17 29 22 12 5 44 23 71 40 27 16 55 28 62 25 8 -3 13 -1 11 5 -1 6 8 15 21
	20 17 7 21 6 16 -4 -4 -6 1 -5 12 4 10 9 29 15 41 14 12 -1 20 2 17 7 -5 7 13
	12 44 11 6 -1 12 3 12 9 0 5 5 6 10 3 6 -4 7 -12 3 -18z m-2354 -1 c10 -6 12
	-5 7 2 -5 8 9 9 46 5 29 -3 55 -9 58 -12 3 -3 19 -7 35 -9 17 -2 31 -7 33 -12
	2 -5 10 -6 19 -3 12 5 14 3 8 -7 -5 -9 -4 -11 4 -6 15 10 124 -41 116 -54 -3
	-6 0 -7 9 -4 9 3 16 2 16 -3 0 -5 7 -10 14 -10 17 0 86 -44 86 -55 0 -5 6 -8
	13 -8 8 0 22 -9 32 -20 10 -11 24 -20 32 -20 8 0 11 -4 8 -10 -3 -5 1 -10 10
	-10 8 0 18 -7 21 -15 4 -8 12 -15 20 -15 8 0 14 -7 14 -16 0 -8 4 -13 9 -9 5
	3 18 -6 29 -20 11 -14 25 -25 32 -25 7 0 10 -7 6 -16 -3 -8 -2 -12 3 -9 10 5
	131 -104 131 -119 0 -4 -5 -4 -12 0 -7 4 -8 3 -4 -4 4 -6 12 -9 19 -6 7 2 21
	-4 30 -14 16 -17 12 -22 -66 -103 -271 -282 -546 -425 -797 -415 -287 12 -458
	194 -469 500 -2 54 0 66 11 60 10 -6 11 -5 1 8 -7 8 -11 17 -8 20 2 2 7 22 11
	44 3 21 9 44 12 49 4 6 7 12 8 15 6 34 18 59 25 54 5 -3 6 2 3 10 -3 8 4 24
	15 35 12 12 20 23 19 26 -2 2 5 14 15 25 9 11 17 25 17 31 0 7 6 7 17 -2 15
	-12 16 -12 10 5 -10 24 12 39 33 23 13 -10 13 -10 2 4 -11 15 -7 21 30 48 23
	17 48 29 56 26 7 -2 10 -1 7 5 -6 9 37 24 110 38 50 10 76 9 94 -2z" />
		<path d="M3876 3041 c-3 -4 6 -7 19 -7 14 0 22 2 19 5 -8 8 -34 10 -38 2z" />
		<path d="M3695 3020 c3 -5 8 -10 11 -10 2 0 4 5 4 10 0 6 -5 10 -11 10 -5 0
	-7 -4 -4 -10z" />
		<path d="M3730 3019 c0 -5 5 -7 10 -4 6 3 10 8 10 11 0 2 -4 4 -10 4 -5 0 -10
	-5 -10 -11z" />
		<path d="M3479 3003 c0 -5 -2 -16 -4 -26 -2 -11 -1 -16 3 -13 8 8 14 46 7 46
	-3 0 -5 -3 -6 -7z" />
		<path d="M3985 3000 c-3 -6 1 -7 9 -4 18 7 21 14 7 14 -6 0 -13 -4 -16 -10z" />
		<path d="M4015 2991 c-3 -5 -2 -12 3 -15 5 -3 9 1 9 9 0 17 -3 19 -12 6z" />
		<path d="M3935 2981 c-3 -5 -2 -12 3 -15 5 -3 9 1 9 9 0 17 -3 19 -12 6z" />
		<path d="M3556 2953 c-6 -14 -5 -15 5 -6 7 7 10 15 7 18 -3 3 -9 -2 -12 -12z" />
		<path d="M3330 2865 c0 -7 30 -13 34 -7 3 4 -4 9 -15 9 -10 1 -19 0 -19 -2z" />
		<path d="M4176 2822 c-3 -5 1 -9 9 -9 8 0 12 4 9 9 -3 4 -7 8 -9 8 -2 0 -6 -4
	-9 -8z" />
		<path d="M3135 2740 c-3 -5 -1 -10 4 -10 6 0 11 5 11 10 0 6 -2 10 -4 10 -3 0
	-8 -4 -11 -10z" />
		<path d="M3100 2700 c-8 -5 -10 -10 -5 -10 6 0 17 5 25 10 8 5 11 10 5 10 -5
	0 -17 -5 -25 -10z" />
		<path d="M3036 2638 c3 -5 10 -6 15 -3 13 9 11 12 -6 12 -8 0 -12 -4 -9 -9z" />
		<path d="M1270 3056 c0 -2 8 -10 18 -17 15 -13 16 -12 3 4 -13 16 -21 21 -21
	13z" />
		<path d="M1310 3040 c0 -5 5 -10 10 -10 6 0 10 5 10 10 0 6 -4 10 -10 10 -5 0
	-10 -4 -10 -10z" />
		<path d="M1340 3045 c0 -2 6 -8 13 -14 10 -8 14 -7 14 2 0 8 -6 14 -14 14 -7
	0 -13 -1 -13 -2z" />
		<path d="M1420 3025 c0 -2 6 -8 13 -14 10 -8 14 -7 14 2 0 8 -6 14 -14 14 -7
	0 -13 -1 -13 -2z" />
		<path d="M1315 3000 c-3 -5 -1 -10 4 -10 6 0 11 5 11 10 0 6 -2 10 -4 10 -3 0
	-8 -4 -11 -10z" />
		<path d="M1496 2993 c-6 -14 -5 -15 5 -6 7 7 10 15 7 18 -3 3 -9 -2 -12 -12z" />
		<path d="M1175 2980 c3 -5 8 -10 11 -10 2 0 4 5 4 10 0 6 -5 10 -11 10 -5 0
	-7 -4 -4 -10z" />
		<path d="M1030 2920 c0 -5 5 -10 11 -10 5 0 7 5 4 10 -3 6 -8 10 -11 10 -2 0
	-4 -4 -4 -10z" />
		<path d="M1690 2899 c0 -5 5 -7 10 -4 6 3 10 8 10 11 0 2 -4 4 -10 4 -5 0 -10
	-5 -10 -11z" />
		<path d="M965 2860 c-3 -6 1 -7 9 -4 18 7 21 14 7 14 -6 0 -13 -4 -16 -10z" />
		<path d="M1795 2851 c-3 -5 -2 -12 3 -15 5 -3 9 1 9 9 0 17 -3 19 -12 6z" />
		<path d="M930 2819 c0 -5 5 -7 10 -4 6 3 10 8 10 11 0 2 -4 4 -10 4 -5 0 -10
	-5 -10 -11z" />
		<path d="M1840 2800 c-9 -6 -10 -10 -3 -10 6 0 15 5 18 10 8 12 4 12 -15 0z" />
		<path d="M1950 2719 c0 -5 5 -7 10 -4 6 3 10 8 10 11 0 2 -4 4 -10 4 -5 0 -10
	-5 -10 -11z" />
		<path d="M2090 2600 c0 -5 5 -10 11 -10 5 0 7 5 4 10 -3 6 -8 10 -11 10 -2 0
	-4 -4 -4 -10z" />
		<path d="M2536 2082 c-3 -4 4 -9 15 -9 23 -2 25 3 4 10 -8 4 -16 3 -19 -1z" />
		<path d="M2740 1880 c-8 -5 -10 -10 -5 -10 6 0 17 5 25 10 8 5 11 10 5 10 -5
	0 -17 -5 -25 -10z" />
		<path d="M2795 1800 c3 -5 8 -10 11 -10 2 0 4 5 4 10 0 6 -5 10 -11 10 -5 0
	-7 -4 -4 -10z" />
		<path d="M2190 1721 c0 -6 4 -13 10 -16 6 -3 7 1 4 9 -7 18 -14 21 -14 7z" />
		<path d="M636 1661 c-3 -5 2 -15 12 -22 15 -12 16 -12 5 2 -7 9 -10 19 -6 22
	3 4 4 7 0 7 -3 0 -8 -4 -11 -9z" />
		<path d="M2125 1660 c-3 -6 1 -7 9 -4 18 7 21 14 7 14 -6 0 -13 -4 -16 -10z" />
		<path d="M685 1600 c-3 -6 1 -7 9 -4 18 7 21 14 7 14 -6 0 -13 -4 -16 -10z" />
		<path d="M3150 1566 c0 -2 7 -7 16 -10 8 -3 12 -2 9 4 -6 10 -25 14 -25 6z" />
		<path d="M1953 1545 c0 -8 4 -12 9 -9 5 3 6 10 3 15 -9 13 -12 11 -12 -6z" />
		<path d="M790 1520 c0 -5 5 -10 11 -10 5 0 7 5 4 10 -3 6 -8 10 -11 10 -2 0
	-4 -4 -4 -10z" />
		<path d="M3195 1520 c-3 -5 -1 -10 4 -10 6 0 11 5 11 10 0 6 -2 10 -4 10 -3 0
	-8 -4 -11 -10z" />
		<path d="M1793 1485 c0 -8 4 -12 9 -9 5 3 6 10 3 15 -9 13 -12 11 -12 -6z" />
		<path d="M1753 1475 c0 -8 4 -12 9 -9 5 3 6 10 3 15 -9 13 -12 11 -12 -6z" />
		<path d="M1096 1447 c3 -10 9 -15 12 -12 3 3 0 11 -7 18 -10 9 -11 8 -5 -6z" />
		<path d="M1035 1440 c3 -5 8 -10 11 -10 2 0 4 5 4 10 0 6 -5 10 -11 10 -5 0
	-7 -4 -4 -10z" />
		<path d="M1636 1433 c-6 -14 -5 -15 5 -6 7 7 10 15 7 18 -3 3 -9 -2 -12 -12z" />
		<path d="M1666 1442 c-3 -5 1 -9 9 -9 8 0 15 4 15 9 0 4 -4 8 -9 8 -6 0 -12
	-4 -15 -8z" />
		<path d="M4156 1433 c-6 -14 -5 -15 5 -6 7 7 10 15 7 18 -3 3 -9 -2 -12 -12z" />
		<path d="M3410 1419 c0 -5 5 -7 10 -4 6 3 10 8 10 11 0 2 -4 4 -10 4 -5 0 -10
	-5 -10 -11z" />
		<path d="M3949 1417 c6 -8 7 -18 3 -22 -4 -5 -1 -5 6 -1 10 6 10 11 1 22 -6 8
	-14 14 -16 14 -3 0 0 -6 6 -13z" />
		<path d="M4110 1426 c0 -2 7 -7 16 -10 8 -3 12 -2 9 4 -6 10 -25 14 -25 6z" />
		<path d="M1406 1405 c-11 -8 -15 -15 -9 -15 6 0 16 7 23 15 16 19 11 19 -14 0z" />
		<path d="M3876 1407 c3 -10 9 -15 12 -12 3 3 0 11 -7 18 -10 9 -11 8 -5 -6z" />
		<path d="M1030 1406 c0 -2 7 -7 16 -10 8 -3 12 -2 9 4 -6 10 -25 14 -25 6z" />
		<path d="M1319 1393 c-13 -16 -12 -17 4 -4 16 13 21 21 13 21 -2 0 -10 -8 -17
	-17z" />
		<path d="M3679 1393 c-13 -16 -12 -17 4 -4 9 7 17 15 17 17 0 8 -8 3 -21 -13z" />
		<path d="M3710 1401 c0 -6 4 -13 10 -16 6 -3 7 1 4 9 -7 18 -14 21 -14 7z" />
		<path d="M3827 1379 c7 -7 15 -10 18 -7 3 3 -2 9 -12 12 -14 6 -15 5 -6 -5z" />
		<path d="M3975 1380 c3 -5 8 -10 11 -10 2 0 4 5 4 10 0 6 -5 10 -11 10 -5 0
	-7 -4 -4 -10z" />
		<path d="M1515 1360 c3 -5 8 -10 11 -10 2 0 4 5 4 10 0 6 -5 10 -11 10 -5 0
	-7 -4 -4 -10z" />
	</g>
</svg>
